<svg width="336" height="70" viewBox="0 0 336 70" fill="none" xmlns="http://www.w3.org/2000/svg">
<path d="M0.62 14H10.1V56H0.62V14ZM5.36 0.559999C6.84 0.559999 8.04 1.04 8.96 2C9.92 2.96 10.4 4.16 10.4 5.6C10.4 7.04 9.92 8.24 8.96 9.2C8.04 10.12 6.84 10.58 5.36 10.58C3.96 10.58 2.78 10.12 1.82 9.2C0.86 8.24 0.38 7.04 0.38 5.6C0.38 4.16 0.86 2.96 1.82 2C2.78 1.04 3.96 0.559999 5.36 0.559999ZM39.5886 33.02C37.8286 32.06 36.0886 31.32 34.3686 30.8C32.6486 30.24 31.1086 29.96 29.7486 29.96C28.6686 29.96 27.7686 30.16 27.0486 30.56C26.3686 30.96 26.0286 31.6 26.0286 32.48C26.0286 33.32 26.4286 34 27.2286 34.52C28.0686 35 29.1286 35.42 30.4086 35.78C31.7286 36.14 33.1086 36.56 34.5486 37.04C35.9886 37.48 37.3486 38.06 38.6286 38.78C39.9486 39.5 41.0086 40.48 41.8086 41.72C42.6086 42.92 43.0086 44.48 43.0086 46.4C43.0086 48.56 42.4286 50.4 41.2686 51.92C40.1086 53.4 38.5286 54.52 36.5286 55.28C34.5286 56 32.3086 56.36 29.8686 56.36C27.2686 56.36 24.7486 55.98 22.3086 55.22C19.8686 54.46 17.7286 53.34 15.8886 51.86L18.8886 45.86C20.5686 47.14 22.4086 48.14 24.4086 48.86C26.4486 49.54 28.3486 49.88 30.1086 49.88C30.9086 49.88 31.6086 49.78 32.2086 49.58C32.8086 49.38 33.2886 49.08 33.6486 48.68C34.0086 48.28 34.1886 47.78 34.1886 47.18C34.1886 46.3 33.7886 45.6 32.9886 45.08C32.1886 44.52 31.1486 44.06 29.8686 43.7C28.5886 43.3 27.2286 42.9 25.7886 42.5C24.3486 42.06 22.9886 41.48 21.7086 40.76C20.4686 40.04 19.4486 39.1 18.6486 37.94C17.8486 36.74 17.4486 35.2 17.4486 33.32C17.4486 31.08 18.0286 29.24 19.1886 27.8C20.3486 26.32 21.8886 25.22 23.8086 24.5C25.7286 23.78 27.8486 23.42 30.1686 23.42C32.4086 23.42 34.6086 23.72 36.7686 24.32C38.9686 24.92 40.9686 25.78 42.7686 26.9L39.5886 33.02ZM27.6486 55.46L33.0486 56L31.8486 59.24C33.6486 59.6 34.9086 60.22 35.6286 61.1C36.3886 61.98 36.7686 62.96 36.7686 64.04C36.7686 65.32 36.4286 66.36 35.7486 67.16C35.0686 68 34.1686 68.62 33.0486 69.02C31.9286 69.42 30.7086 69.62 29.3886 69.62C28.3086 69.62 27.2086 69.5 26.0886 69.26C25.0086 69.06 24.0086 68.78 23.0886 68.42L24.6486 63.98C25.1286 64.18 25.6486 64.32 26.2086 64.4C26.8086 64.52 27.3686 64.58 27.8886 64.58C28.6486 64.58 29.2486 64.44 29.6886 64.16C30.1286 63.92 30.3486 63.6 30.3486 63.2C30.3486 62.76 30.0686 62.4 29.5086 62.12C28.9486 61.88 28.1886 61.76 27.2286 61.76C27.0286 61.76 26.7486 61.76 26.3886 61.76C26.0286 61.76 25.7686 61.76 25.6086 61.76L27.6486 55.46ZM49.19 23.78H58.43V56H49.19V23.78ZM53.81 9.56C55.29 9.56 56.49 10.04 57.41 11C58.37 11.96 58.85 13.16 58.85 14.6C58.85 16.04 58.37 17.24 57.41 18.2C56.49 19.16 55.29 19.64 53.81 19.64C52.41 19.64 51.23 19.16 50.27 18.2C49.31 17.24 48.83 16.04 48.83 14.6C48.83 13.16 49.31 11.96 50.27 11C51.23 10.04 52.41 9.56 53.81 9.56ZM90.2755 38.36C90.2755 36.24 89.6955 34.58 88.5355 33.38C87.4155 32.18 85.8755 31.58 83.9155 31.58C81.6355 31.62 79.8355 32.44 78.5155 34.04C77.1955 35.64 76.5355 37.66 76.5355 40.1H74.1955C74.1955 36.34 74.7355 33.24 75.8155 30.8C76.9355 28.32 78.4955 26.48 80.4955 25.28C82.5355 24.04 84.9355 23.42 87.6955 23.42C90.0955 23.42 92.1755 23.94 93.9355 24.98C95.7355 25.98 97.1155 27.4 98.0755 29.24C99.0355 31.08 99.5155 33.26 99.5155 35.78V56H90.2755V38.36ZM67.2955 23.78H76.5355V56H67.2955V23.78ZM107.491 23.78H116.731V56H107.491V23.78ZM112.111 9.56C113.591 9.56 114.791 10.04 115.711 11C116.671 11.96 117.151 13.16 117.151 14.6C117.151 16.04 116.671 17.24 115.711 18.2C114.791 19.16 113.591 19.64 112.111 19.64C110.711 19.64 109.531 19.16 108.571 18.2C107.611 17.24 107.131 16.04 107.131 14.6C107.131 13.16 107.611 11.96 108.571 11C109.531 10.04 110.711 9.56 112.111 9.56ZM145.336 23.48C148.376 23.48 151.016 24.18 153.256 25.58C155.536 26.94 157.316 28.86 158.596 31.34C159.876 33.82 160.516 36.72 160.516 40.04C160.516 43.28 159.896 46.12 158.656 48.56C157.416 51 155.676 52.9 153.436 54.26C151.196 55.62 148.556 56.3 145.516 56.3C142.716 56.3 140.316 55.66 138.316 54.38C136.316 53.06 134.776 51.18 133.696 48.74C132.616 46.26 132.076 43.36 132.076 40.04C132.076 36.6 132.596 33.64 133.636 31.16C134.716 28.68 136.236 26.78 138.196 25.46C140.196 24.14 142.576 23.48 145.336 23.48ZM143.176 30.68C141.616 30.68 140.216 31.08 138.976 31.88C137.776 32.64 136.836 33.7 136.156 35.06C135.476 36.42 135.136 38 135.136 39.8C135.136 41.6 135.476 43.2 136.156 44.6C136.836 45.96 137.776 47.02 138.976 47.78C140.216 48.54 141.616 48.92 143.176 48.92C144.776 48.92 146.176 48.54 147.376 47.78C148.576 47.02 149.496 45.96 150.136 44.6C150.816 43.2 151.156 41.6 151.156 39.8C151.156 38.04 150.816 36.48 150.136 35.12C149.496 33.72 148.576 32.64 147.376 31.88C146.176 31.08 144.776 30.68 143.176 30.68ZM125.896 11.48H135.136V56H125.896V11.48ZM174.892 41.48C174.892 43.56 175.432 45.2 176.512 46.4C177.592 47.6 179.072 48.2 180.952 48.2C183.192 48.16 184.932 47.34 186.172 45.74C187.452 44.14 188.092 42.12 188.092 39.68H190.312C190.312 43.44 189.772 46.56 188.692 49.04C187.652 51.48 186.152 53.3 184.192 54.5C182.272 55.7 179.972 56.32 177.292 56.36C174.892 56.36 172.832 55.86 171.112 54.86C169.392 53.82 168.052 52.38 167.092 50.54C166.132 48.7 165.652 46.52 165.652 44V23.78H174.892V41.48ZM188.092 23.78H197.272V56H188.092V23.78ZM206.521 11.48H215.761V56H206.521V11.48ZM227.61 47.24C228.97 47.24 230.07 47.68 230.91 48.56C231.79 49.4 232.23 50.5 232.23 51.86C232.23 53.22 231.79 54.34 230.91 55.22C230.07 56.1 228.97 56.54 227.61 56.54C226.29 56.54 225.19 56.1 224.31 55.22C223.43 54.34 222.99 53.22 222.99 51.86C222.99 50.5 223.43 49.4 224.31 48.56C225.19 47.68 226.29 47.24 227.61 47.24ZM262.131 38.36C262.131 36.24 261.551 34.58 260.391 33.38C259.271 32.18 257.731 31.58 255.771 31.58C253.491 31.62 251.691 32.44 250.371 34.04C249.051 35.64 248.391 37.66 248.391 40.1H246.051C246.051 36.34 246.591 33.24 247.671 30.8C248.791 28.32 250.351 26.48 252.351 25.28C254.391 24.04 256.791 23.42 259.551 23.42C261.951 23.42 264.031 23.94 265.791 24.98C267.591 25.98 268.971 27.4 269.931 29.24C270.891 31.08 271.371 33.26 271.371 35.78V56H262.131V38.36ZM239.151 23.78H248.391V56H239.151V23.78ZM300.406 37.28C300.366 35.8 300.046 34.54 299.446 33.5C298.886 32.42 298.066 31.58 296.986 30.98C295.906 30.38 294.666 30.08 293.266 30.08C291.706 30.08 290.346 30.48 289.186 31.28C288.026 32.08 287.126 33.18 286.486 34.58C285.846 35.98 285.526 37.6 285.526 39.44C285.526 41.52 285.886 43.3 286.606 44.78C287.326 46.26 288.346 47.4 289.666 48.2C290.986 49 292.506 49.4 294.226 49.4C297.346 49.4 300.066 48.24 302.386 45.92L307.246 50.72C305.646 52.52 303.666 53.9 301.306 54.86C298.986 55.82 296.366 56.3 293.446 56.3C290.006 56.3 287.026 55.62 284.506 54.26C281.986 52.9 280.026 51 278.626 48.56C277.266 46.08 276.586 43.22 276.586 39.98C276.586 36.66 277.286 33.78 278.686 31.34C280.086 28.86 282.026 26.94 284.506 25.58C287.026 24.22 289.926 23.52 293.206 23.48C297.006 23.48 300.106 24.28 302.506 25.88C304.946 27.44 306.706 29.66 307.786 32.54C308.906 35.38 309.326 38.76 309.046 42.68H284.206V37.28H300.406ZM325.767 45.02C325.767 46.46 326.047 47.48 326.607 48.08C327.167 48.64 327.927 48.9 328.887 48.86C329.487 48.86 330.147 48.76 330.867 48.56C331.587 48.36 332.367 48.06 333.207 47.66L335.127 54.14C333.927 54.86 332.607 55.42 331.167 55.82C329.727 56.22 328.247 56.42 326.727 56.42C324.807 56.42 323.067 56.06 321.507 55.34C319.987 54.62 318.787 53.52 317.907 52.04C317.027 50.56 316.587 48.72 316.587 46.52V16.28H325.767V45.02ZM312.087 25.16H334.527V31.34H312.087V25.16Z" fill="#3B9B8B"/>
</svg>
